<svg width="25" height="24" viewBox="0 0 25 24" fill="none" xmlns="http://www.w3.org/2000/svg">
<path d="M4.59961 18.6458V8.05426C4.59961 5.20025 4.59961 3.77325 5.47829 2.88663C6.35697 2 7.77118 2 10.5996 2H14.5996C17.428 2 18.8422 2 19.7209 2.88663C20.5996 3.77325 20.5996 5.20025 20.5996 8.05426V18.6458C20.5996 20.1575 20.5996 20.9133 20.1376 21.2108C19.3827 21.6971 18.2157 20.6774 17.6287 20.3073C17.1437 20.0014 16.9013 19.8485 16.6321 19.8397C16.3413 19.8301 16.0945 19.9768 15.5705 20.3073L13.6596 21.5124C13.1441 21.8374 12.8864 22 12.5996 22C12.3128 22 12.0551 21.8374 11.5396 21.5124L9.62874 20.3073C9.14376 20.0014 8.90127 19.8485 8.63214 19.8397C8.34133 19.8301 8.09454 19.9768 7.57048 20.3073C6.98356 20.6774 5.81648 21.6971 5.06156 21.2108C4.59961 20.9133 4.59961 20.1575 4.59961 18.6458Z" stroke="#8C8C8C" style="stroke:#8C8C8C;stroke:color(display-p3 0.5490 0.5490 0.5490);stroke-opacity:1;" stroke-width="1.5" stroke-linecap="round" stroke-linejoin="round"/>
<path d="M11.5996 11H8.59961" stroke="#8C8C8C" style="stroke:#8C8C8C;stroke:color(display-p3 0.5490 0.5490 0.5490);stroke-opacity:1;" stroke-width="1.5" stroke-linecap="round" stroke-linejoin="round"/>
<path d="M14.5996 7H8.59961" stroke="#8C8C8C" style="stroke:#8C8C8C;stroke:color(display-p3 0.5490 0.5490 0.5490);stroke-opacity:1;" stroke-width="1.5" stroke-linecap="round" stroke-linejoin="round"/>
</svg>
