<svg width="100" height="100" viewBox="0 0 100 100" fill="none" xmlns="http://www.w3.org/2000/svg">
<path d="M77.833 0C77.833 0.276034 78.057 0.499824 78.333 0.5H84C86.1024 0.5 88.1059 0.918325 89.9326 1.67578C90.1854 1.78062 90.4749 1.66256 90.583 1.41211C94.1279 3.01433 96.9844 5.87123 98.5869 9.41602C98.3368 9.52428 98.2194 9.81472 98.3242 10.0674C99.0817 11.8941 99.5 13.8976 99.5 16V21.667C99.5002 21.943 99.724 22.167 100 22.167V32.5C99.7239 32.5 99.5 32.7239 99.5 33V44.333C99.5 44.6092 99.7239 44.833 100 44.833V55.167C99.7239 55.167 99.5 55.3908 99.5 55.667V67C99.5 67.2761 99.7239 67.5 100 67.5V77.833C99.724 77.833 99.5002 78.057 99.5 78.333V84C99.5 85.9713 99.1322 87.8556 98.4619 89.5889L98.3242 89.9326C98.2195 90.1852 98.337 90.4746 98.5869 90.583C96.9845 94.128 94.128 96.9845 90.583 98.5869C90.4883 98.3686 90.2559 98.2513 90.0303 98.2949L89.9326 98.3242C88.1059 99.0817 86.1024 99.5 84 99.5H78.333C78.057 99.5002 77.833 99.724 77.833 100H67.5C67.5 99.7239 67.2761 99.5 67 99.5H55.667C55.3908 99.5 55.167 99.7239 55.167 100H44.833C44.833 99.7239 44.6092 99.5 44.333 99.5H33C32.7239 99.5 32.5 99.7239 32.5 100H22.167C22.167 99.724 21.943 99.5002 21.667 99.5H16C13.8976 99.5 11.8941 99.0817 10.0674 98.3242L9.96973 98.2949C9.74394 98.2513 9.51059 98.3684 9.41602 98.5869C5.87123 96.9844 3.01433 94.1279 1.41211 90.583C1.66256 90.4749 1.78062 90.1854 1.67578 89.9326C0.918325 88.1059 0.5 86.1024 0.5 84V78.333C0.499828 78.057 0.276036 77.833 0 77.833V67.5C0.241712 67.5 0.443707 67.3286 0.490234 67.1006L0.5 67V55.667C0.5 55.3908 0.276142 55.167 0 55.167V44.833C0.276142 44.833 0.5 44.6092 0.5 44.333V33C0.499999 32.7239 0.276142 32.5 0 32.5V22.167C0.241603 22.167 0.443588 21.9954 0.490234 21.7676L0.5 21.667V16C0.5 14.0287 0.867802 12.1444 1.53809 10.4111L1.67578 10.0674C1.78067 9.81445 1.66281 9.524 1.41211 9.41602C3.01446 5.87133 5.87133 3.01446 9.41602 1.41211C9.51036 1.63114 9.74366 1.74876 9.96973 1.70508L10.0674 1.67578C11.8941 0.918325 13.8976 0.5 16 0.5H21.667C21.9085 0.499849 22.1097 0.328388 22.1562 0.100586L22.167 0H32.5C32.5 0.241712 32.6714 0.443707 32.8994 0.490234L33 0.5H44.333C44.6092 0.5 44.833 0.276142 44.833 0H55.167C55.167 0.276142 55.3908 0.5 55.667 0.5H67C67.2761 0.5 67.5 0.276142 67.5 0H77.833Z" fill="#FAFCFF" style="fill:#FAFCFF;fill:color(display-p3 0.9800 0.9866 1.0000);fill-opacity:1;"/>
<path d="M77.833 0C77.833 0.276034 78.057 0.499824 78.333 0.5H84C86.1024 0.5 88.1059 0.918325 89.9326 1.67578C90.1854 1.78062 90.4749 1.66256 90.583 1.41211C94.1279 3.01433 96.9844 5.87123 98.5869 9.41602C98.3368 9.52428 98.2194 9.81472 98.3242 10.0674C99.0817 11.8941 99.5 13.8976 99.5 16V21.667C99.5002 21.943 99.724 22.167 100 22.167V32.5C99.7239 32.5 99.5 32.7239 99.5 33V44.333C99.5 44.6092 99.7239 44.833 100 44.833V55.167C99.7239 55.167 99.5 55.3908 99.5 55.667V67C99.5 67.2761 99.7239 67.5 100 67.5V77.833C99.724 77.833 99.5002 78.057 99.5 78.333V84C99.5 85.9713 99.1322 87.8556 98.4619 89.5889L98.3242 89.9326C98.2195 90.1852 98.337 90.4746 98.5869 90.583C96.9845 94.128 94.128 96.9845 90.583 98.5869C90.4883 98.3686 90.2559 98.2513 90.0303 98.2949L89.9326 98.3242C88.1059 99.0817 86.1024 99.5 84 99.5H78.333C78.057 99.5002 77.833 99.724 77.833 100H67.5C67.5 99.7239 67.2761 99.5 67 99.5H55.667C55.3908 99.5 55.167 99.7239 55.167 100H44.833C44.833 99.7239 44.6092 99.5 44.333 99.5H33C32.7239 99.5 32.5 99.7239 32.5 100H22.167C22.167 99.724 21.943 99.5002 21.667 99.5H16C13.8976 99.5 11.8941 99.0817 10.0674 98.3242L9.96973 98.2949C9.74394 98.2513 9.51059 98.3684 9.41602 98.5869C5.87123 96.9844 3.01433 94.1279 1.41211 90.583C1.66256 90.4749 1.78062 90.1854 1.67578 89.9326C0.918325 88.1059 0.5 86.1024 0.5 84V78.333C0.499828 78.057 0.276036 77.833 0 77.833V67.5C0.241712 67.5 0.443707 67.3286 0.490234 67.1006L0.5 67V55.667C0.5 55.3908 0.276142 55.167 0 55.167V44.833C0.276142 44.833 0.5 44.6092 0.5 44.333V33C0.499999 32.7239 0.276142 32.5 0 32.5V22.167C0.241603 22.167 0.443588 21.9954 0.490234 21.7676L0.5 21.667V16C0.5 14.0287 0.867802 12.1444 1.53809 10.4111L1.67578 10.0674C1.78067 9.81445 1.66281 9.524 1.41211 9.41602C3.01446 5.87133 5.87133 3.01446 9.41602 1.41211C9.51036 1.63114 9.74366 1.74876 9.96973 1.70508L10.0674 1.67578C11.8941 0.918325 13.8976 0.5 16 0.5H21.667C21.9085 0.499849 22.1097 0.328388 22.1562 0.100586L22.167 0H32.5C32.5 0.241712 32.6714 0.443707 32.8994 0.490234L33 0.5H44.333C44.6092 0.5 44.833 0.276142 44.833 0H55.167C55.167 0.276142 55.3908 0.5 55.667 0.5H67C67.2761 0.5 67.5 0.276142 67.5 0H77.833Z" stroke="#1A66FF" style="stroke:#1A66FF;stroke:color(display-p3 0.1000 0.3984 1.0000);stroke-opacity:1;" stroke-linecap="round" stroke-dasharray="12 12"/>
<path d="M45.5 44V44.75C45.7508 44.75 45.985 44.6247 46.1241 44.416L45.5 44ZM54.5 44L53.876 44.416C54.0151 44.6247 54.2492 44.75 54.5 44.75V44ZM40.75 51.5V49.5H39.25V51.5H40.75ZM45.6885 42.3652L44.876 43.584L46.1241 44.416L46.9366 43.1972L45.6885 42.3652ZM49.6407 40.25C49.1305 40.25 48.6969 40.2492 48.3369 40.2828C47.9615 40.3178 47.6124 40.3937 47.2728 40.5754L47.9806 41.8979C48.0831 41.843 48.2171 41.8005 48.4762 41.7763C48.7506 41.7507 49.1031 41.75 49.6407 41.75V40.25ZM46.9366 43.1972C47.2349 42.7498 47.431 42.457 47.6045 42.2429C47.7683 42.0407 47.878 41.9528 47.9806 41.8979L47.2728 40.5754C46.9332 40.7571 46.6765 41.0055 46.4391 41.2985C46.2114 41.5795 45.9716 41.9406 45.6885 42.3652L46.9366 43.1972ZM40.75 49.5C40.75 48.0499 40.7582 47.4911 40.89 47.0566L39.4546 46.6211C39.2419 47.3222 39.25 48.159 39.25 49.5H40.75ZM45.5 43.25C44.159 43.25 43.3223 43.2419 42.6212 43.4545L43.0566 44.8899C43.4911 44.7581 44.0499 44.75 45.5 44.75V43.25ZM40.89 47.0566C41.2051 46.0179 42.0179 45.205 43.0566 44.8899L42.6212 43.4545C41.1031 43.915 39.9151 45.103 39.4546 46.6211L40.89 47.0566ZM47.5 58.25C45.8379 58.25 44.6573 58.2488 43.7514 58.1417C42.862 58.0366 42.3357 57.8384 41.9383 57.5123L40.9867 58.6718C41.6956 59.2536 42.5443 59.5095 43.5753 59.6313C44.5897 59.7512 45.8747 59.75 47.5 59.75V58.25ZM39.25 51.5C39.25 53.1254 39.2488 54.4103 39.3687 55.4248C39.4906 56.4557 39.7464 57.3044 40.3282 58.0134L41.4878 57.0618C41.1616 56.6644 40.9635 56.138 40.8584 55.2487C40.7513 54.3428 40.75 53.1621 40.75 51.5H39.25ZM41.9383 57.5123C41.7737 57.3772 41.6228 57.2263 41.4878 57.0618L40.3282 58.0134C40.5256 58.2539 40.7462 58.4744 40.9867 58.6718L41.9383 57.5123ZM60.75 51.5V49.5H59.25V51.5H60.75ZM53.0634 43.1972L53.876 44.416L55.124 43.584L54.3115 42.3652L53.0634 43.1972ZM50.3593 41.75C50.8969 41.75 51.2494 41.7507 51.5238 41.7763C51.7829 41.8005 51.9169 41.843 52.0195 41.8979L52.7272 40.5754C52.3877 40.3937 52.0386 40.3178 51.6631 40.2828C51.3031 40.2492 50.8695 40.25 50.3593 40.25V41.75ZM54.3115 42.3652C54.0285 41.9406 53.7886 41.5795 53.561 41.2985C53.3235 41.0055 53.0668 40.7571 52.7272 40.5754L52.0195 41.8979C52.1221 41.9528 52.2317 42.0407 52.3955 42.2429C52.5691 42.457 52.7652 42.7498 53.0634 43.1972L54.3115 42.3652ZM60.75 49.5C60.75 48.159 60.7581 47.3222 60.5455 46.6211L59.1101 47.0566C59.2419 47.4911 59.25 48.0499 59.25 49.5H60.75ZM54.5 44.75C55.9501 44.75 56.5089 44.7581 56.9434 44.8899L57.3789 43.4545C56.6778 43.2419 55.841 43.25 54.5 43.25V44.75ZM60.5455 46.6211C60.085 45.103 58.897 43.915 57.3789 43.4545L56.9434 44.8899C57.9821 45.205 58.795 46.0179 59.1101 47.0566L60.5455 46.6211ZM52.5 59.75C54.1254 59.75 55.4103 59.7512 56.4248 59.6313C57.4557 59.5095 58.3044 59.2536 59.0134 58.6718L58.0618 57.5123C57.6644 57.8384 57.138 58.0366 56.2487 58.1417C55.3428 58.2488 54.1621 58.25 52.5 58.25V59.75ZM59.25 51.5C59.25 53.1621 59.2488 54.3428 59.1417 55.2487C59.0366 56.138 58.8384 56.6644 58.5123 57.0618L59.6718 58.0134C60.2536 57.3044 60.5095 56.4557 60.6313 55.4248C60.7512 54.4103 60.75 53.1254 60.75 51.5H59.25ZM59.0134 58.6718C59.2539 58.4744 59.4744 58.2539 59.6718 58.0134L58.5123 57.0618C58.3772 57.2263 58.2263 57.3772 58.0618 57.5123L59.0134 58.6718ZM50.3593 40.25H49.6407V41.75H50.3593V40.25ZM47.5 59.75H52.5V58.25H47.5V59.75Z" fill="#1A66FF" style="fill:#1A66FF;fill:color(display-p3 0.1000 0.3984 1.0000);fill-opacity:1;"/>
<path d="M50 47V55M54 51H46" stroke="#1A66FF" style="stroke:#1A66FF;stroke:color(display-p3 0.1000 0.3984 1.0000);stroke-opacity:1;" stroke-width="1.5" stroke-linecap="round" stroke-linejoin="round"/>
</svg>
